<svg width="95" height="28" viewBox="0 0 95 28" fill="none" xmlns="http://www.w3.org/2000/svg">
<path d="M0.0800003 27V0.92H5.96V22.04H16.28V27H0.0800003ZM29.9378 27.48C28.1778 27.48 26.5645 27.1733 25.0978 26.56C23.6578 25.92 22.4178 25.0133 21.3778 23.84C20.3378 22.6667 19.5245 21.24 18.9378 19.56C18.3778 17.88 18.0978 15.9733 18.0978 13.84C18.0978 11.7067 18.3778 9.81333 18.9378 8.16C19.5245 6.48 20.3378 5.08 21.3778 3.96C22.4178 2.81333 23.6578 1.94667 25.0978 1.36C26.5645 0.746665 28.1778 0.439999 29.9378 0.439999C31.6978 0.439999 33.2978 0.746665 34.7378 1.36C36.2045 1.94667 37.4578 2.81333 38.4978 3.96C39.5378 5.10666 40.3378 6.52 40.8978 8.2C41.4845 9.85333 41.7778 11.7333 41.7778 13.84C41.7778 15.9733 41.4845 17.88 40.8978 19.56C40.3378 21.24 39.5378 22.6667 38.4978 23.84C37.4578 25.0133 36.2045 25.92 34.7378 26.56C33.2978 27.1733 31.6978 27.48 29.9378 27.48ZM29.9378 22.4C31.7245 22.4 33.1378 21.64 34.1778 20.12C35.2178 18.5733 35.7378 16.48 35.7378 13.84C35.7378 11.2267 35.2178 9.18667 34.1778 7.72C33.1378 6.25333 31.7245 5.52 29.9378 5.52C28.1511 5.52 26.7378 6.25333 25.6978 7.72C24.6578 9.18667 24.1378 11.2267 24.1378 13.84C24.1378 16.48 24.6578 18.5733 25.6978 20.12C26.7378 21.64 28.1511 22.4 29.9378 22.4ZM58.2016 27.48C56.4149 27.48 54.7349 27.2 53.1616 26.64C51.6149 26.0533 50.2682 25.2 49.1216 24.08C47.9749 22.96 47.0682 21.5733 46.4016 19.92C45.7616 18.24 45.4416 16.3067 45.4416 14.12C45.4416 11.96 45.7749 10.04 46.4416 8.36C47.1082 6.65333 48.0149 5.21333 49.1616 4.04C50.3349 2.86667 51.6949 1.97333 53.2416 1.36C54.7882 0.746665 56.4282 0.439999 58.1616 0.439999C60.0549 0.439999 61.6816 0.786666 63.0416 1.48C64.4016 2.17333 65.5082 2.96 66.3616 3.84L63.2816 7.6C62.6149 7.01333 61.9082 6.52 61.1616 6.12C60.4149 5.72 59.4816 5.52 58.3616 5.52C57.3482 5.52 56.4149 5.72 55.5616 6.12C54.7349 6.49333 54.0149 7.04 53.4016 7.76C52.7882 8.48 52.3082 9.36 51.9616 10.4C51.6416 11.44 51.4816 12.6133 51.4816 13.92C51.4816 16.6133 52.0816 18.7067 53.2816 20.2C54.5082 21.6667 56.3482 22.4 58.8016 22.4C59.3349 22.4 59.8549 22.3333 60.3616 22.2C60.8682 22.0667 61.2816 21.8667 61.6016 21.6V17.12H57.2816V12.32H66.8016V24.32C65.8949 25.2 64.6949 25.9467 63.2016 26.56C61.7082 27.1733 60.0416 27.48 58.2016 27.48ZM82.7894 27.48C81.0294 27.48 79.416 27.1733 77.9494 26.56C76.5094 25.92 75.2694 25.0133 74.2294 23.84C73.1894 22.6667 72.376 21.24 71.7894 19.56C71.2294 17.88 70.9494 15.9733 70.9494 13.84C70.9494 11.7067 71.2294 9.81333 71.7894 8.16C72.376 6.48 73.1894 5.08 74.2294 3.96C75.2694 2.81333 76.5094 1.94667 77.9494 1.36C79.416 0.746665 81.0294 0.439999 82.7894 0.439999C84.5494 0.439999 86.1494 0.746665 87.5894 1.36C89.056 1.94667 90.3094 2.81333 91.3494 3.96C92.3894 5.10666 93.1894 6.52 93.7494 8.2C94.336 9.85333 94.6294 11.7333 94.6294 13.84C94.6294 15.9733 94.336 17.88 93.7494 19.56C93.1894 21.24 92.3894 22.6667 91.3494 23.84C90.3094 25.0133 89.056 25.92 87.5894 26.56C86.1494 27.1733 84.5494 27.48 82.7894 27.48ZM82.7894 22.4C84.576 22.4 85.9894 21.64 87.0294 20.12C88.0694 18.5733 88.5894 16.48 88.5894 13.84C88.5894 11.2267 88.0694 9.18667 87.0294 7.72C85.9894 6.25333 84.576 5.52 82.7894 5.52C81.0027 5.52 79.5894 6.25333 78.5494 7.72C77.5094 9.18667 76.9894 11.2267 76.9894 13.84C76.9894 16.48 77.5094 18.5733 78.5494 20.12C79.5894 21.64 81.0027 22.4 82.7894 22.4Z" fill="white"/>
</svg>
