<svg width="569" height="565" viewBox="0 0 569 565" fill="none" xmlns="http://www.w3.org/2000/svg">
<mask id="mask0_0_21" style="mask-type:alpha" maskUnits="userSpaceOnUse" x="201" y="0" width="368" height="437">
<path fill-rule="evenodd" clip-rule="evenodd" d="M242.675 1.01069L242.681 0.98377L237.876 3.74246L241.073 5.09281L201.302 241.483C200.843 244.188 202.819 248.061 205.428 249.57L521.373 432.307L521.104 432.224L521.913 436.621L526.614 433.9L526.612 433.898C527.461 433.539 528.073 432.715 528.284 431.472L568.374 193.206C568.833 190.497 566.856 186.626 564.247 185.116L246.378 1.26751C245.578 0.805656 244.819 0.586121 244.143 0.586121C243.591 0.586121 243.093 0.731097 242.675 1.01069Z" fill="white"/>
</mask>
<g mask="url(#mask0_0_21)">
<path fill-rule="evenodd" clip-rule="evenodd" d="M242.675 1.01069L242.681 0.98377L237.876 3.74246L241.073 5.09281L201.302 241.483C200.843 244.188 202.819 248.061 205.428 249.57L521.373 432.307L521.104 432.224L521.913 436.621L526.614 433.9L526.612 433.898C527.461 433.539 528.073 432.715 528.284 431.472L568.374 193.206C568.833 190.497 566.856 186.626 564.247 185.116L246.378 1.26751C245.578 0.805656 244.819 0.586121 244.143 0.586121C243.591 0.586121 243.093 0.731097 242.675 1.01069Z" fill="url(#paint0_linear_0_21)"/>
</g>
<mask id="mask1_0_21" style="mask-type:alpha" maskUnits="userSpaceOnUse" x="505" y="189" width="64" height="248">
<path fill-rule="evenodd" clip-rule="evenodd" d="M562.484 192.104L505.473 423.089L521.44 432.317L521.171 432.234L521.979 436.622L526.673 433.906H526.671C527.52 433.547 528.131 432.724 528.341 431.484L568.374 193.726C568.577 192.538 568.29 191.133 567.703 189.794L562.484 192.104Z" fill="white"/>
</mask>
<g mask="url(#mask1_0_21)">
<path fill-rule="evenodd" clip-rule="evenodd" d="M562.484 192.104L505.473 423.089L521.44 432.317L521.171 432.234L521.979 436.622L526.673 433.906H526.671C527.52 433.547 528.131 432.724 528.341 431.484L568.374 193.726C568.577 192.538 568.29 191.133 567.703 189.794L562.484 192.104Z" fill="url(#paint1_linear_0_21)"/>
</g>
<path fill-rule="evenodd" clip-rule="evenodd" d="M200.642 252.406L518.454 436.285C520.907 437.704 523.009 436.886 523.439 434.338L563.523 196.032C563.98 193.325 562.004 189.451 559.395 187.941L241.584 4.06272C239.128 2.64379 237.03 3.46201 236.598 6.00779L196.516 244.317C196.055 247.023 198.032 250.896 200.642 252.406Z" fill="#D13B3B"/>
<path fill-rule="evenodd" clip-rule="evenodd" d="M245.738 19.2745L552.083 196.518L514.093 420.956L207.954 243.83L245.738 19.2745Z" fill="#FF5959"/>
<mask id="mask2_0_21" style="mask-type:alpha" maskUnits="userSpaceOnUse" x="0" y="272" width="519" height="293">
<path fill-rule="evenodd" clip-rule="evenodd" d="M191.488 273.398L17.5178 373.972L0.167486 364.9L6.4782 383.161L6.50094 383.144C6.85039 384.124 7.69402 385.086 9.07526 385.886L316.127 563.391C319.487 565.335 324.571 565.547 327.483 563.863L510.71 457.941C511.66 457.392 512.22 456.704 512.485 455.967C512.489 455.969 512.511 455.986 512.511 455.986L518.861 439.416C518.861 439.416 505.771 445.723 502.899 447.33L202.844 273.87C201.006 272.805 198.651 272.261 196.42 272.261C194.571 272.261 192.807 272.636 191.488 273.398Z" fill="white"/>
</mask>
<g mask="url(#mask2_0_21)">
<path fill-rule="evenodd" clip-rule="evenodd" d="M191.488 273.398L17.5178 373.972L0.167486 364.9L6.4782 383.161L6.50094 383.144C6.85039 384.124 7.69402 385.086 9.07526 385.886L316.127 563.391C319.487 565.335 324.571 565.547 327.483 563.863L510.71 457.941C511.66 457.392 512.22 456.704 512.485 455.967C512.489 455.969 512.511 455.986 512.511 455.986L518.861 439.416C518.861 439.416 505.771 445.723 502.899 447.33L202.844 273.87C201.006 272.805 198.651 272.261 196.42 272.261C194.571 272.261 192.807 272.636 191.488 273.398Z" fill="url(#paint2_linear_0_21)"/>
</g>
<mask id="mask3_0_21" style="mask-type:alpha" maskUnits="userSpaceOnUse" x="0" y="252" width="519" height="300">
<path fill-rule="evenodd" clip-rule="evenodd" d="M189.799 253.17L2.01397 361.627C0.676147 362.401 0.0144741 363.431 0 364.511V364.583C0.0165418 365.892 0.982171 367.27 2.84933 368.348L317.535 550.1C320.98 552.09 326.188 552.305 329.174 550.582L516.957 442.125C519.941 440.404 519.567 437.394 516.122 435.402L201.436 253.652C199.552 252.564 197.139 252.007 194.855 252.007C192.958 252.007 191.151 252.39 189.799 253.17Z" fill="white"/>
</mask>
<g mask="url(#mask3_0_21)">
<path fill-rule="evenodd" clip-rule="evenodd" d="M189.799 253.17L2.01397 361.627C0.676147 362.401 0.0144741 363.431 0 364.511V364.583C0.0165418 365.892 0.982171 367.27 2.84933 368.348L317.535 550.1C320.98 552.09 326.188 552.305 329.174 550.582L516.957 442.125C519.941 440.404 519.567 437.394 516.122 435.402L201.436 253.652C199.552 252.564 197.139 252.007 194.855 252.007C192.958 252.007 191.151 252.39 189.799 253.17Z" fill="url(#paint3_linear_0_21)"/>
</g>
<path fill-rule="evenodd" clip-rule="evenodd" d="M413.065 510.56V507.111C413.065 506.785 412.866 506.636 412.62 506.777L400.445 513.797C400.201 513.94 400.002 514.318 400.002 514.647V518.095C400.002 518.423 400.201 518.572 400.445 518.432L412.62 511.409C412.866 511.268 413.065 510.886 413.065 510.56Z" fill="#CB2828" fill-opacity="0.8"/>
<path fill-rule="evenodd" clip-rule="evenodd" d="M394.859 521.062V517.611C394.859 517.285 394.66 517.136 394.414 517.277L382.239 524.297C381.995 524.44 381.796 524.82 381.796 525.149V528.595C381.796 528.923 381.995 529.072 382.239 528.932L394.414 521.909C394.66 521.768 394.859 521.388 394.859 521.062Z" fill="#CB2828" fill-opacity="0.8"/>
<path fill-rule="evenodd" clip-rule="evenodd" d="M468.625 431.833L207.064 280.972C205.318 279.966 203.172 279.968 201.43 280.974L108.288 334.809C106.95 335.583 106.952 337.513 108.288 338.284L369.729 489.073C371.468 490.077 373.617 490.079 375.356 489.075L468.625 435.309C469.963 434.538 469.963 432.606 468.625 431.833Z" fill="#FFADAD"/>
<path fill-rule="evenodd" clip-rule="evenodd" d="M468.625 435.308L467.688 435.849L207.064 285.527C205.318 284.523 203.17 284.525 201.43 285.531L109.227 338.824L108.288 338.283C106.952 337.512 106.95 335.583 108.288 334.808L201.43 280.975C203.17 279.967 205.318 279.965 207.064 280.973L468.625 431.833C469.963 432.605 469.963 434.537 468.625 435.308Z" fill="#FF9193"/>
<path fill-rule="evenodd" clip-rule="evenodd" d="M194.399 294.608L421.601 425.654L431.704 419.825L204.502 288.784L194.399 294.608Z" fill="#932424"/>
<path fill-rule="evenodd" clip-rule="evenodd" d="M169.633 308.894L382.741 431.809L392.844 425.982L179.736 303.069L169.633 308.894Z" fill="#932424"/>
<path fill-rule="evenodd" clip-rule="evenodd" d="M153.502 318.197L404.412 462.916L414.515 457.092L163.605 312.373L153.502 318.197Z" fill="#932424"/>
<path fill-rule="evenodd" clip-rule="evenodd" d="M137.37 327.503L388.28 472.222L398.383 466.395L147.473 321.676L137.37 327.503Z" fill="#932424"/>
<path fill-rule="evenodd" clip-rule="evenodd" d="M121.239 336.806L372.149 481.525L382.252 475.699L131.342 330.98L121.239 336.806Z" fill="#932424"/>
<path fill-rule="evenodd" clip-rule="evenodd" d="M435.33 433.571L445.433 439.397L455.536 433.571L445.433 427.746L435.33 433.571Z" fill="#932424"/>
<path fill-rule="evenodd" clip-rule="evenodd" d="M399.698 441.589L420.666 453.684L430.767 447.856L409.799 435.763L399.698 441.589Z" fill="#932424"/>
<mask id="mask4_0_21" style="mask-type:alpha" maskUnits="userSpaceOnUse" x="123" y="392" width="135" height="78">
<path fill-rule="evenodd" clip-rule="evenodd" d="M174.34 393.536L125.936 421.525C123.169 423.124 123.171 425.716 125.936 427.315L196.719 468.25C199.488 469.848 203.974 469.848 206.741 468.25L255.143 440.261C257.91 438.66 257.91 436.065 255.143 434.465L184.36 393.536C182.975 392.736 181.163 392.337 179.349 392.337C177.537 392.337 175.723 392.736 174.34 393.536Z" fill="white"/>
</mask>
<g mask="url(#mask4_0_21)">
<path fill-rule="evenodd" clip-rule="evenodd" d="M174.34 393.536L125.936 421.525C123.169 423.124 123.171 425.716 125.936 427.315L196.719 468.25C199.488 469.848 203.974 469.848 206.741 468.25L255.143 440.261C257.91 438.66 257.91 436.065 255.143 434.465L184.36 393.536C182.975 392.736 181.163 392.337 179.349 392.337C177.537 392.337 175.723 392.736 174.34 393.536Z" fill="url(#paint4_linear_0_21)"/>
</g>
<g opacity="0.20389">
<path fill-rule="evenodd" clip-rule="evenodd" d="M254.601 437.03L184.104 396.296C181.348 394.703 176.882 394.703 174.127 396.296L125.919 424.151C125.07 424.643 124.513 425.233 124.189 425.854C123.457 424.461 124.015 422.893 125.919 421.792L174.127 393.938C176.882 392.345 181.348 392.345 184.104 393.938L254.601 434.669C256.507 435.772 257.061 437.34 256.333 438.733C256.009 438.11 255.451 437.52 254.601 437.03Z" fill="#EB4040"/>
<mask id="mask5_0_21" style="mask-type:alpha" maskUnits="userSpaceOnUse" x="207" y="136" width="340" height="285">
<path fill-rule="evenodd" clip-rule="evenodd" d="M388.025 137.798C389.375 137.018 391.184 136.635 393.08 136.635C395.366 136.635 397.779 137.192 399.66 138.28L546.966 223.395L513.49 420.905L207.312 243.99L207.642 242.026" fill="white"/>
</mask>
<g mask="url(#mask5_0_21)">
<path fill-rule="evenodd" clip-rule="evenodd" d="M388.025 137.798L207.642 242.026L207.312 243.99L513.49 420.905L546.966 223.395L399.66 138.28C397.779 137.192 395.366 136.635 393.08 136.635C391.184 136.635 389.375 137.018 388.025 137.798Z" fill="url(#paint5_linear_0_21)"/>
</g>
<mask id="mask6_0_21" style="mask-type:alpha" maskUnits="userSpaceOnUse" x="444" y="210" width="102" height="77">
<path fill-rule="evenodd" clip-rule="evenodd" d="M494.382 211.242C495.761 210.445 497.566 210.048 499.37 210.048C501.175 210.048 502.98 210.445 504.359 211.242L545.041 234.75L537.485 279.334L526.651 285.594C523.893 287.188 519.425 287.188 516.672 285.594L446.175 244.863C443.421 243.27 443.421 240.69 446.175 239.097" fill="white"/>
</mask>
<g mask="url(#mask6_0_21)">
<path fill-rule="evenodd" clip-rule="evenodd" d="M494.382 211.242L446.175 239.097C443.421 240.69 443.421 243.27 446.175 244.863L516.672 285.594C519.425 287.188 523.893 287.188 526.651 285.594L537.485 279.334L545.041 234.75L504.359 211.242C502.98 210.445 501.175 210.048 499.37 210.048C497.566 210.048 495.761 210.445 494.382 211.242Z" fill="url(#paint6_linear_0_21)"/>
</g>
<mask id="mask7_0_21" style="mask-type:alpha" maskUnits="userSpaceOnUse" x="207" y="19" width="345" height="402">
<path fill-rule="evenodd" clip-rule="evenodd" d="M245.1 19.7014L551.485 196.734L513.49 420.905L207.312 243.99" fill="white"/>
</mask>
<g mask="url(#mask7_0_21)">
<path fill-rule="evenodd" clip-rule="evenodd" d="M574.856 254.335L504.358 213.601C501.603 212.008 497.137 212.008 494.382 213.601L446.174 241.456C445.324 241.948 444.768 242.538 444.444 243.16C443.714 241.768 444.27 240.198 446.174 239.097L494.382 211.242C497.137 209.649 501.603 209.649 504.358 211.242L574.856 251.974C576.762 253.077 577.316 254.645 576.588 256.038C576.264 255.415 575.707 254.825 574.856 254.335Z" fill="#FF9191"/>
</g>
<mask id="mask8_0_21" style="mask-type:alpha" maskUnits="userSpaceOnUse" x="207" y="19" width="345" height="402">
<path fill-rule="evenodd" clip-rule="evenodd" d="M245.1 19.7014L551.485 196.734L513.49 420.905L207.312 243.99" fill="white"/>
</mask>
<g mask="url(#mask8_0_21)">
<path fill-rule="evenodd" clip-rule="evenodd" d="M605.847 349.255L344.395 198.183C342.652 197.177 340.504 197.177 338.763 198.187L245.662 252.096C244.325 252.87 244.325 254.802 245.662 255.576L506.993 406.573C508.731 407.579 510.879 407.579 512.618 406.573L605.845 352.735C607.185 351.961 607.185 350.026 605.847 349.255Z" fill="#FFADAD"/>
</g>
<mask id="mask9_0_21" style="mask-type:alpha" maskUnits="userSpaceOnUse" x="207" y="19" width="345" height="402">
<path fill-rule="evenodd" clip-rule="evenodd" d="M245.1 19.7014L551.485 196.734L513.49 420.905L207.312 243.99" fill="white"/>
</mask>
<g mask="url(#mask9_0_21)">
<path fill-rule="evenodd" clip-rule="evenodd" d="M605.845 352.734L604.911 353.274L344.395 202.746C342.652 201.739 340.504 201.741 338.764 202.749L246.599 256.115L245.662 255.575C244.325 254.802 244.325 252.869 245.66 252.095L338.764 198.186C340.504 197.177 342.652 197.177 344.395 198.184L605.847 349.254C607.185 350.026 607.185 351.96 605.845 352.734Z" fill="#FF9191"/>
</g>
<mask id="mask10_0_21" style="mask-type:alpha" maskUnits="userSpaceOnUse" x="207" y="19" width="345" height="402">
<path fill-rule="evenodd" clip-rule="evenodd" d="M245.1 19.7014L551.485 196.734L513.49 420.905L207.312 243.99L245.1 19.7014Z" fill="white"/>
</mask>
<g mask="url(#mask10_0_21)">
<path fill-rule="evenodd" clip-rule="evenodd" d="M270.027 248.419L497.797 380.026L488.773 385.24L261.005 253.633L270.027 248.419Z" fill="#932424"/>
</g>
<mask id="mask11_0_21" style="mask-type:alpha" maskUnits="userSpaceOnUse" x="207" y="19" width="345" height="402">
<path fill-rule="evenodd" clip-rule="evenodd" d="M245.1 19.7014L551.485 196.734L513.49 420.905L207.312 243.99L245.1 19.7014Z" fill="white"/>
</mask>
<g mask="url(#mask11_0_21)">
<path fill-rule="evenodd" clip-rule="evenodd" d="M294.025 234.552L510.516 359.644L501.492 364.856L285.003 239.766L294.025 234.552Z" fill="#932424"/>
</g>
<mask id="mask12_0_21" style="mask-type:alpha" maskUnits="userSpaceOnUse" x="207" y="19" width="345" height="402">
<path fill-rule="evenodd" clip-rule="evenodd" d="M245.1 19.7014L551.485 196.734L513.49 420.905L207.312 243.99L245.1 19.7014Z" fill="white"/>
</mask>
<g mask="url(#mask12_0_21)">
<path fill-rule="evenodd" clip-rule="evenodd" d="M526.682 368.985L546.9 380.666L537.878 385.88L517.66 374.199L526.682 368.985Z" fill="#932424"/>
</g>
<mask id="mask13_0_21" style="mask-type:alpha" maskUnits="userSpaceOnUse" x="207" y="19" width="345" height="402">
<path fill-rule="evenodd" clip-rule="evenodd" d="M245.1 19.7014L551.485 196.734L513.49 420.905L207.312 243.99L245.1 19.7014Z" fill="white"/>
</mask>
<g mask="url(#mask13_0_21)">
<path fill-rule="evenodd" clip-rule="evenodd" d="M508.823 386.399L522.903 394.534L513.88 399.746L499.801 391.613L508.823 386.399Z" fill="#932424"/>
</g>
<mask id="mask14_0_21" style="mask-type:alpha" maskUnits="userSpaceOnUse" x="207" y="19" width="345" height="402">
<path fill-rule="evenodd" clip-rule="evenodd" d="M245.1 19.7014L551.485 196.734L513.49 420.905L207.312 243.99L245.1 19.7014Z" fill="white"/>
</mask>
<g mask="url(#mask14_0_21)">
<path fill-rule="evenodd" clip-rule="evenodd" d="M309.063 225.864L561.939 371.979L552.915 377.193L300.042 231.078L309.063 225.864Z" fill="#932424"/>
</g>
<mask id="mask15_0_21" style="mask-type:alpha" maskUnits="userSpaceOnUse" x="207" y="19" width="345" height="402">
<path fill-rule="evenodd" clip-rule="evenodd" d="M245.1 19.7014L551.485 196.734L513.49 420.905L207.312 243.99L245.1 19.7014Z" fill="white"/>
</mask>
<g mask="url(#mask15_0_21)">
<path fill-rule="evenodd" clip-rule="evenodd" d="M324.1 217.174L576.975 363.289L567.953 368.505L315.078 222.388L324.1 217.174Z" fill="#932424"/>
</g>
<mask id="mask16_0_21" style="mask-type:alpha" maskUnits="userSpaceOnUse" x="207" y="19" width="345" height="402">
<path fill-rule="evenodd" clip-rule="evenodd" d="M245.1 19.7014L551.485 196.734L513.49 420.905L207.312 243.99L245.1 19.7014Z" fill="white"/>
</mask>
<g mask="url(#mask16_0_21)">
<path fill-rule="evenodd" clip-rule="evenodd" d="M339.138 208.486L592.011 354.601L582.99 359.814L330.116 213.7L339.138 208.486Z" fill="#932424"/>
</g>
</g>
<defs>
<linearGradient id="paint0_linear_0_21" x1="568.441" y1="0.585133" x2="201.234" y2="0.585133" gradientUnits="userSpaceOnUse">
<stop stop-color="#FFBFBF"/>
<stop offset="1" stop-color="#FFE8E8"/>
</linearGradient>
<linearGradient id="paint1_linear_0_21" x1="568.439" y1="189.797" x2="505.474" y2="189.797" gradientUnits="userSpaceOnUse">
<stop stop-color="#FF5656"/>
<stop offset="1" stop-color="#FFBCBC"/>
</linearGradient>
<linearGradient id="paint2_linear_0_21" x1="518.861" y1="272.261" x2="0.167084" y2="272.261" gradientUnits="userSpaceOnUse">
<stop stop-color="#FF7676"/>
<stop offset="1" stop-color="#FFBCBC"/>
</linearGradient>
<linearGradient id="paint3_linear_0_21" x1="344.578" y1="252.008" x2="-174.392" y2="252.008" gradientUnits="userSpaceOnUse">
<stop stop-color="#FFBFBF"/>
<stop offset="1" stop-color="#FFE8E8"/>
</linearGradient>
<linearGradient id="paint4_linear_0_21" x1="257.218" y1="392.336" x2="123.861" y2="392.336" gradientUnits="userSpaceOnUse">
<stop stop-color="#FFD0D0"/>
<stop offset="1" stop-color="#FFE8E8"/>
</linearGradient>
<linearGradient id="paint5_linear_0_21" x1="542.773" y1="69.4094" x2="23.9083" y2="69.4094" gradientUnits="userSpaceOnUse">
<stop stop-color="#FFBFBF"/>
<stop offset="1" stop-color="#FFE8E8"/>
</linearGradient>
<linearGradient id="paint6_linear_0_21" x1="576.923" y1="197.928" x2="444.108" y2="197.928" gradientUnits="userSpaceOnUse">
<stop stop-color="#FFBFBF"/>
<stop offset="0.97435" stop-color="#FFE8E8"/>
</linearGradient>
</defs>
</svg>
